<svg width="250" height="250" viewBox="0 0 250 250" fill="none" xmlns="http://www.w3.org/2000/svg">
<rect width="250" height="250" rx="20" fill="url(#paint0_linear_2377_10)"/>
<path d="M68.3425 96.9746C65.83 94.3049 47.3495 66.8363 39 53C67.2387 53 99.0844 56.2927 115.072 79.5697C119.225 85.6157 122.052 91.9165 124.88 98.6386C127.708 91.9165 130.536 85.6157 134.689 79.5697C150.676 56.2927 182.522 53 210.761 53L124.88 196.134L99.1163 154.228C119.155 135.335 133.468 139.596 140.625 143.89C143.488 136.733 145.125 112.529 115.577 111.685C90.5283 110.969 72.3406 101.223 68.3425 96.9746Z" fill="#A37FBC"/>
<ellipse cx="124.255" cy="128.68" rx="3.57633" ry="2.9995" fill="#A37FBC"/>
<defs>
<linearGradient id="paint0_linear_2377_10" x1="125" y1="0" x2="125" y2="250" gradientUnits="userSpaceOnUse">
<stop stop-color="#EEE6FF"/>
<stop offset="1" stop-color="#FFE1F5"/>
</linearGradient>
</defs>
</svg>
