<svg width="200" height="200" viewBox="0 0 200 200" fill="none" xmlns="http://www.w3.org/2000/svg">
<path d="M43.3425 71.9746C40.83 69.3049 22.3495 41.8363 14 28C42.2387 28 74.0844 31.2927 90.072 54.5697C94.2246 60.6157 97.0525 66.9165 99.8804 73.6386C102.708 66.9165 105.536 60.6157 109.689 54.5697C125.676 31.2927 157.522 28 185.761 28L99.8804 171.134L74.1163 129.228C94.1551 110.335 108.468 114.596 115.625 118.89C118.488 111.733 120.125 87.5292 90.5767 86.685C65.5283 85.9693 47.3406 76.2228 43.3425 71.9746Z" fill="#A37FBC"/>
<ellipse cx="99.255" cy="103.68" rx="3.57633" ry="2.9995" fill="#A37FBC"/>
</svg>
